<svg id="Group_13" data-name="Group 13" xmlns="http://www.w3.org/2000/svg" width="17.166" height="17.166" viewBox="0 0 17.166 17.166">
  <path id="Path_131" data-name="Path 131" d="M14.484,0H2.682A2.685,2.685,0,0,0,0,2.682v11.8a2.685,2.685,0,0,0,2.682,2.682h11.8a2.685,2.685,0,0,0,2.682-2.682V2.682A2.685,2.685,0,0,0,14.484,0Zm1.609,14.484a1.609,1.609,0,0,1-1.609,1.609H2.682a1.609,1.609,0,0,1-1.609-1.609V2.682A1.609,1.609,0,0,1,2.682,1.073h11.8a1.609,1.609,0,0,1,1.609,1.609Z" fill="#b8b8b8"/>
  <path id="Path_132" data-name="Path 132" d="M11.9,6H10.828v4.828H6V11.9h4.828v4.828H11.9V11.9h4.828V10.828H11.9Z" transform="translate(-2.781 -2.781)" fill="#b8b8b8"/>
</svg>
