<svg xmlns="http://www.w3.org/2000/svg" xmlns:xlink="http://www.w3.org/1999/xlink" width="55.671" height="55.473" viewBox="0 0 55.671 55.473">
  <defs>
    <linearGradient id="linear-gradient" x1="0.5" x2="0.5" y2="3.087" gradientUnits="objectBoundingBox">
      <stop offset="0" stop-color="#6a5daa"/>
      <stop offset="1" stop-color="#e36aa6"/>
    </linearGradient>
  </defs>
  <path id="Path_144" data-name="Path 144" d="M2,31.718a5.96,5.96,0,0,0,5.944,5.944h5.944a3.974,3.974,0,0,1,3.962,3.962,4.063,4.063,0,0,1-3.962,3.962H5.962a1.981,1.981,0,1,0,0,3.962H25.774v1.981a5.96,5.96,0,0,0,5.944,5.944A6.2,6.2,0,0,0,36.671,54.9l1.585-2.576a1.8,1.8,0,0,1,1.585-.792H43.6a2.446,2.446,0,0,1,1.585.792L46.775,54.9a5.98,5.98,0,0,0,10.9-3.368,33.3,33.3,0,0,0-2.377-12.481A11.833,11.833,0,0,0,54.1,36.869a5.819,5.819,0,0,0,3.566-5.349V29.538H2ZM30.133,47.567a11.428,11.428,0,0,1,.594-2.774,3.673,3.673,0,0,1,.4-1.387,12.625,12.625,0,0,0,.4-1.387c.2-.4.4-.991.594-1.387a4.145,4.145,0,0,1,.792-1.189l.594-.594a4.66,4.66,0,0,1,3.368-1.189h10.5a5.005,5.005,0,0,1,4.557,2.972,29.688,29.688,0,0,1,2.179,10.9,1.985,1.985,0,0,1-1.981,1.981,2.446,2.446,0,0,1-1.585-.792l-1.585-2.576A8.014,8.014,0,0,0,43.6,47.567H39.642a6.2,6.2,0,0,0-4.953,2.576L33.1,52.718a1.668,1.668,0,0,1-1.387.792,1.985,1.985,0,0,1-1.981-1.981A12.835,12.835,0,0,1,30.133,47.567ZM51.529,2H7.944A5.837,5.837,0,0,0,2,7.944V25.774H57.473V7.944A5.837,5.837,0,0,0,51.529,2Z" transform="translate(-2 -2)" fill="url(#linear-gradient)"/>
</svg>
