<svg xmlns="http://www.w3.org/2000/svg" xmlns:xlink="http://www.w3.org/1999/xlink" width="55.473" height="55.473" viewBox="0 0 55.473 55.473">
  <defs>
    <linearGradient id="linear-gradient" x1="0.5" x2="0.5" y2="3.242" gradientUnits="objectBoundingBox">
      <stop offset="0" stop-color="#6a5daa"/>
      <stop offset="1" stop-color="#e36aa6"/>
    </linearGradient>
  </defs>
  <path id="Path_148" data-name="Path 148" d="M11.868,33.117l8.925,6.943L6.176,54.676a11.466,11.466,0,0,1-2.069-4.57l0,0c-.062-.3-.1-.613-.142-.926-.009-.08-.027-.16-.037-.242-.039-.393-.059-.791-.059-1.2V41.116Zm29.878-7.976L59.34,38.628v9.112a11.574,11.574,0,0,1-11.6,11.6H15.466c-.354,0-.7-.021-1.047-.053-.11-.009-.219-.023-.329-.037-.233-.027-.466-.062-.695-.1-.13-.023-.261-.043-.391-.073H13c-.272-.059-.54-.13-.8-.208-.215-.064-.427-.137-.636-.213-.057-.021-.114-.039-.171-.062a11.411,11.411,0,0,1-2.062-1.026ZM23.639,14.486a3.343,3.343,0,1,1-3.344,3.344A3.317,3.317,0,0,1,23.639,14.486Zm0-4.268a7.61,7.61,0,1,0,7.608,7.613A7.645,7.645,0,0,0,23.639,10.218ZM15.466,3.867H47.741a11.573,11.573,0,0,1,11.6,11.6V33.252L42.86,20.617a2.134,2.134,0,0,0-2.807.183L23.833,37.019,13,28.59a2.132,2.132,0,0,0-2.819.176L3.867,35.083V15.464A11.573,11.573,0,0,1,15.466,3.867Z" transform="translate(-3.867 -3.867)" fill-rule="evenodd" fill="url(#linear-gradient)"/>
</svg>
