<svg xmlns="http://www.w3.org/2000/svg" xmlns:xlink="http://www.w3.org/1999/xlink" width="65" height="65" viewBox="0 0 65 65">
  <defs>
    <linearGradient id="linear-gradient" x1="0.5" x2="0.459" y2="1.967" gradientUnits="objectBoundingBox">
      <stop offset="0" stop-color="#6a5daa"/>
      <stop offset="1" stop-color="#e36aa6"/>
    </linearGradient>
    <filter id="Rectangle_9" x="0" y="0" width="65" height="65" filterUnits="userSpaceOnUse">
      <feOffset dy="3" input="SourceAlpha"/>
      <feGaussianBlur stdDeviation="3" result="blur"/>
      <feFlood flood-opacity="0.161"/>
      <feComposite operator="in" in2="blur"/>
      <feComposite in="SourceGraphic"/>
    </filter>
  </defs>
  <g id="Group_8" data-name="Group 8" transform="translate(-176 -610)">
    <g transform="matrix(1, 0, 0, 1, 176, 610)" filter="url(#Rectangle_9)">
      <rect id="Rectangle_9-2" data-name="Rectangle 9" width="47" height="47" rx="5" transform="translate(9 6)" fill="url(#linear-gradient)"/>
    </g>
    <path id="Path_127" data-name="Path 127" d="M12,10.282H23.328a10.966,10.966,0,0,1,.187,2v0c0,.066,0,.144,0,.222a12.6,12.6,0,0,1-1.457,5.9l.033-.069a10.332,10.332,0,0,1-4,4.137l-.051.027A11.844,11.844,0,0,1,12.229,24l-.242,0h-.032a11.762,11.762,0,0,1-4.7-.975l.076.03A11.83,11.83,0,0,1,.973,16.749l-.029-.077A11.814,11.814,0,0,1,0,12,11.988,11.988,0,0,1,.974,7.25l-.03.078A11.83,11.83,0,0,1,7.25.974L7.327.945A11.6,11.6,0,0,1,11.951,0H12l.2,0a11.334,11.334,0,0,1,7.853,3.147l0,0L16.781,6.283a6.585,6.585,0,0,0-4.6-1.863c-.065,0-.129,0-.194,0h-.038A7.137,7.137,0,0,0,8.24,5.457l.032-.018a7.644,7.644,0,0,0-.034,13.105l.034.019a7.1,7.1,0,0,0,3.679,1.016h.13a7.936,7.936,0,0,0,2.474-.392L14.5,19.2a6.3,6.3,0,0,0,1.893-.95l-.017.012A6.837,6.837,0,0,0,17.643,17l.012-.016a5.922,5.922,0,0,0,.79-1.321l.015-.039a5.521,5.521,0,0,0,.346-1.184l0-.035H12Z" transform="translate(197.001 627.001)" fill="#fff"/>
  </g>
</svg>
