<svg id="person_outline-24px" xmlns="http://www.w3.org/2000/svg" width="26.342" height="26.342" viewBox="0 0 26.342 26.342">
  <path id="Path_120" data-name="Path 120" d="M0,0H26.342V26.342H0Z" fill="none"/>
  <path id="Path_121" data-name="Path 121" d="M12.781,6.085a2.3,2.3,0,1,1-2.3,2.3,2.3,2.3,0,0,1,2.3-2.3m0,9.878c3.26,0,6.7,1.6,6.7,2.3v1.207H6.085V18.269c0-.7,3.435-2.3,6.7-2.3M12.781,4a4.39,4.39,0,1,0,4.39,4.39A4.389,4.389,0,0,0,12.781,4Zm0,9.878C9.85,13.878,4,15.349,4,18.269v3.293H21.561V18.269C21.561,15.349,15.711,13.878,12.781,13.878Z" transform="translate(0.39 0.39)" fill="#b8b8b8"/>
</svg>
